<svg width="119" height="167" viewBox="0 0 119 167" fill="none" xmlns="http://www.w3.org/2000/svg">
<g filter="url(#filter0_d_88_87)">
<path d="M58.448 128.536C52.4747 128.536 47.0133 127.469 42.064 125.336C37.2 123.117 33.104 120.045 29.776 116.12C26.448 112.109 24.1867 107.501 22.992 102.296L34.256 98.456C35.792 104.6 38.6933 109.293 42.96 112.536C47.312 115.693 52.6453 117.272 58.96 117.272C63.2267 117.272 66.8533 116.589 69.84 115.224C72.912 113.773 75.216 111.811 76.752 109.336C78.3733 106.861 79.184 104.131 79.184 101.144C79.184 97.816 78.16 95.0853 76.112 92.952C74.1493 90.7333 71.2053 89.0267 67.28 87.832L50.64 82.456C44.4107 80.4933 39.6747 77.464 36.432 73.368C33.1893 69.1867 31.568 64.28 31.568 58.648C31.568 53.4427 32.9333 48.664 35.664 44.312C38.3947 39.96 42.1493 36.504 46.928 33.944C51.792 31.384 57.3387 30.104 63.568 30.104C69.2853 30.104 74.3627 31.1707 78.8 33.304C83.3227 35.352 87.0347 38.1253 89.936 41.624C92.9227 45.1227 94.928 49.0907 95.952 53.528L84.944 57.496C83.664 52.376 81.104 48.408 77.264 45.592C73.5093 42.776 68.9013 41.368 63.44 41.368C59.6853 41.368 56.3147 42.0507 53.328 43.416C50.4267 44.7813 48.1653 46.7013 46.544 49.176C44.9227 51.5653 44.112 54.3813 44.112 57.624C44.112 60.696 45.0507 63.4693 46.928 65.944C48.8907 68.3333 51.9627 70.168 56.144 71.448L71.248 76.312C78.16 78.5307 83.3227 81.688 86.736 85.784C90.1493 89.88 91.856 94.744 91.856 100.376C91.856 105.411 90.448 110.061 87.632 114.328C84.9013 118.595 81.0613 122.051 76.112 124.696C71.1627 127.256 65.2747 128.536 58.448 128.536ZM48.336 139.8L65.232 18.84H74.96L58.064 139.8H48.336Z" fill="black"/>
</g>
<defs>
<filter id="filter0_d_88_87" x="0.592005" y="0.439844" width="117.76" height="165.76" filterUnits="userSpaceOnUse" color-interpolation-filters="sRGB">
<feFlood flood-opacity="0" result="BackgroundImageFix"/>
<feColorMatrix in="SourceAlpha" type="matrix" values="0 0 0 0 0 0 0 0 0 0 0 0 0 0 0 0 0 0 127 0" result="hardAlpha"/>
<feOffset dy="4"/>
<feGaussianBlur stdDeviation="11.2"/>
<feComposite in2="hardAlpha" operator="out"/>
<feColorMatrix type="matrix" values="0 0 0 0 0 0 0 0 0 0 0 0 0 0 0 0 0 0 0.25 0"/>
<feBlend mode="normal" in2="BackgroundImageFix" result="effect1_dropShadow_88_87"/>
<feBlend mode="normal" in="SourceGraphic" in2="effect1_dropShadow_88_87" result="shape"/>
</filter>
</defs>
</svg>
